<?xml version="1.0" encoding="UTF-8"?>
<svg version="1.1" xmlns="http://www.w3.org/2000/svg" width="487" height="486">
<path d="M0 0 C1.59714844 1.14275391 1.59714844 1.14275391 3.2265625 2.30859375 C9.86209203 7.15505013 16.03863616 12.34902876 22 18 C23.40185547 19.30517578 23.40185547 19.30517578 24.83203125 20.63671875 C36.89601709 32.10667488 46.79139643 45.54724499 55 60 C55.32806641 60.56332031 55.65613281 61.12664062 55.99414062 61.70703125 C80.03070281 103.16205818 83.7579364 153.72397749 71.60595703 199.5234375 C64.46773719 224.57760779 50.52396733 247.13457235 32.71484375 265.9765625 C30.79903689 267.98270061 30.79903689 267.98270061 30 271 C30.45590362 272.89162385 30.45590362 272.89162385 31.34472656 274.88134766 C31.82313995 276.04686661 31.82313995 276.04686661 32.31121826 277.2359314 C32.66742249 278.07846466 33.02362671 278.92099792 33.390625 279.7890625 C34.14095967 281.61189925 34.8902724 283.43515693 35.63867188 285.25878906 C36.03014404 286.20612915 36.42161621 287.15346924 36.82495117 288.1295166 C38.70357073 292.71872696 40.50000996 297.33923967 42.296875 301.9609375 C43.02908577 303.83737159 43.76142795 305.71375441 44.49389648 307.59008789 C44.86231659 308.53481964 45.23073669 309.47955139 45.61032104 310.45291138 C51.15943773 324.68061178 56.73490129 338.89560044 62.4375 353.0625 C63.82334785 356.52675918 65.20631842 359.99214055 66.58691406 363.45849609 C67.58214282 365.95275808 68.58136978 368.44514958 69.58496094 370.93603516 C70.9259392 374.26905091 72.24717861 377.60935266 73.55618286 380.95504761 C74.28826524 382.81347873 75.03824842 384.66482738 75.78881836 386.51586914 C80.02976809 397.44696594 80.02976809 397.44696594 78 404 C76.04137038 405.8533298 74.75447436 406.90218725 72.0546875 407.25219727 C63.10923526 406.23320926 54.59846319 403.50208538 46 400.9375 C44.30690541 400.43964278 42.61362563 399.94241496 40.92016602 399.44580078 C29.83631342 396.18517816 18.7776175 392.83977604 7.75585938 389.37475586 C6.79357422 389.0731958 5.83128906 388.77163574 4.83984375 388.4609375 C4.01863037 388.20103027 3.19741699 387.94112305 2.35131836 387.67333984 C-0.08242805 386.97639533 -2.51201612 386.46271359 -5 386 C-5.57105469 386.98355469 -6.14210938 387.96710938 -6.73046875 388.98046875 C-13.61312398 400.78384018 -20.75709886 412.41480249 -28 424 C-28.40476562 424.6492041 -28.80953125 425.2984082 -29.2265625 425.96728516 C-34.64002987 434.64002987 -34.64002987 434.64002987 -37 437 C-38.98828125 437.37109375 -38.98828125 437.37109375 -41.3125 437.4375 C-42.07175781 437.47746094 -42.83101563 437.51742188 -43.61328125 437.55859375 C-47.18557398 436.72252524 -48.58556692 434.72460603 -51 432 C-52.38696263 429.57221895 -53.62274128 427.22571419 -54.80273438 424.70483398 C-55.49795603 423.26797548 -56.19352265 421.83128385 -56.8894043 420.39474487 C-57.23945526 419.66344738 -57.58950623 418.93214989 -57.95016479 418.17869186 C-59.59058856 414.77436909 -61.29354479 411.4021366 -62.99414062 408.02758789 C-63.6755824 406.66879039 -64.35668882 405.30982465 -65.03747559 403.95069885 C-65.38255661 403.26215883 -65.72763763 402.57361881 -66.08317566 401.86421394 C-68.3674776 397.3053831 -70.65014934 392.74573572 -72.9328537 388.18610477 C-74.91494857 384.22713361 -76.89779846 380.26854427 -78.88232422 376.31079102 C-80.83206951 372.42231269 -82.77975233 368.53280727 -84.72612 364.64263725 C-85.45563358 363.18542402 -86.18583709 361.72855592 -86.91682434 360.27208138 C-90.85823168 352.41778585 -94.73768834 344.53657314 -98.50976562 336.59936523 C-99.03495914 335.50326353 -99.03495914 335.50326353 -99.57076263 334.38501835 C-102 329.23504348 -102 329.23504348 -102 327 C-109.92 327 -117.84 327 -126 327 C-127.485 331.455 -127.485 331.455 -129 336 C-129.75686867 337.92412904 -130.53946258 339.83847687 -131.35546875 341.73828125 C-132.02896362 343.31065552 -132.02896362 343.31065552 -132.71606445 344.91479492 C-133.44442505 346.59665894 -133.44442505 346.59665894 -134.1875 348.3125 C-134.70723389 349.51817627 -135.22696777 350.72385254 -135.76245117 351.96606445 C-142.36861575 367.25768327 -149.14424638 382.47520961 -155.95800781 397.67523193 C-156.65959017 399.24051839 -157.36075407 400.80599247 -158.06152344 402.37164307 C-160.14252422 407.02093297 -162.22931968 411.66753772 -164.32504272 416.31021118 C-164.97770212 417.75755101 -165.62879282 419.20559935 -166.27822876 420.65438843 C-167.17674714 422.6572327 -168.08161959 424.65708154 -168.98828125 426.65625 C-169.75458862 428.35491211 -169.75458862 428.35491211 -170.53637695 430.08789062 C-171.83720256 432.67608876 -173.08994547 434.82932181 -175 437 C-177.0859375 437.56640625 -177.0859375 437.56640625 -179.375 437.5625 C-180.12523437 437.58441406 -180.87546875 437.60632813 -181.6484375 437.62890625 C-186.83792856 436.24101911 -189.96078337 430.87307102 -192.8203125 426.60546875 C-193.51560059 425.57446045 -194.21088867 424.54345215 -194.92724609 423.48120117 C-195.65250488 422.39427979 -196.37776367 421.3073584 -197.125 420.1875 C-197.88170341 419.06248908 -198.6390321 417.9378985 -199.39697266 416.8137207 C-200.9014747 414.58161774 -202.40373963 412.3480378 -203.90429688 410.11328125 C-206.70370109 405.95461366 -209.53291817 401.81707557 -212.375 397.6875 C-212.80828613 397.05545654 -213.24157227 396.42341309 -213.68798828 395.7722168 C-215.33825015 393.37204771 -216.99686616 391.00401652 -218.7890625 388.70703125 C-220 387 -220 387 -220 385 C-221.36874268 385.45886597 -221.36874268 385.45886597 -222.76513672 385.92700195 C-239.39440503 391.49885931 -256.03120064 397.04764795 -272.71173096 402.46444702 C-274.18937747 402.9444684 -275.66671633 403.42543792 -277.14373779 403.90737915 C-279.20816669 404.58051409 -281.27379332 405.24982986 -283.33984375 405.91796875 C-285.09349243 406.48680786 -285.09349243 406.48680786 -286.88256836 407.06713867 C-294.19049039 409.2539638 -294.19049039 409.2539638 -298.1875 408 C-301.97204859 405.30876545 -302.21329368 403.53938588 -303 399 C-302.60060115 395.95287176 -301.67250841 393.15425464 -300.6875 390.25 C-300.2697229 388.94591187 -300.2697229 388.94591187 -299.84350586 387.61547852 C-298.9146732 384.73708189 -297.95772863 381.86889754 -297 379 C-296.37125121 377.06677815 -295.7436674 375.13317705 -295.1171875 373.19921875 C-290.84245012 360.11188161 -286.3143411 347.11335396 -281.77093506 334.11749268 C-280.81242883 331.37479637 -279.85545376 328.6315704 -278.89892578 325.88818359 C-278.25296668 324.03611991 -277.60697037 322.18406921 -276.9609375 320.33203125 C-276.63848053 319.40747131 -276.31602356 318.48291138 -275.98379517 317.53033447 C-273.96319147 311.74234966 -271.9269463 305.96009797 -269.8818512 300.1807251 C-268.54295931 296.38738646 -267.21651506 292.58977423 -265.89291382 288.79107666 C-265.25906123 286.9808502 -264.61980612 285.17250586 -263.9750061 283.3661499 C-263.08272809 280.86460191 -262.20922096 278.35723791 -261.33984375 275.84765625 C-261.07092316 275.10803146 -260.80200256 274.36840668 -260.52493286 273.60636902 C-259.16476321 269.68913327 -259.16476321 269.68913327 -259.69946289 265.67871094 C-261.77570984 262.99872708 -264.13510178 260.60844195 -266.5 258.1875 C-296.22714485 226.70907159 -309.07416381 181.04522835 -308.24609375 138.53515625 C-306.9854715 102.7171779 -294.26062493 69.49902848 -273 41 C-272.38125 40.16597656 -271.7625 39.33195312 -271.125 38.47265625 C-241.32373322 -0.77947522 -196.58373524 -26.63546471 -147.81860352 -33.40600586 C-96.44737664 -39.81922418 -42.42914275 -31.07648023 0 0 Z M-177 -9 C-178.18078125 -8.5978125 -179.3615625 -8.195625 -180.578125 -7.78125 C-202.07905037 0.05652575 -221.30280909 12.42342593 -238 28 C-238.62003906 28.57621094 -239.24007812 29.15242188 -239.87890625 29.74609375 C-253.78277636 42.80730506 -264.25096022 57.08068357 -273 74 C-273.47928955 74.91966553 -273.47928955 74.91966553 -273.96826172 75.85791016 C-292.96964357 112.83759894 -295.01920752 156.54321342 -282.39599609 195.88232422 C-268.60295896 237.77110906 -236.71701887 271.72316331 -198.03173828 292.09570312 C-172.26120774 305.08304946 -144.31517049 310.44306897 -115.625 310.375 C-114.79672699 310.37478851 -113.96845398 310.37457703 -113.11508179 310.37435913 C-98.77167234 310.33799871 -85.02855631 309.14183898 -71 306 C-70.1553418 305.81808105 -69.31068359 305.63616211 -68.44042969 305.44873047 C-26.56512282 296.22098955 12.27356022 270.73885944 35.82421875 234.734375 C41.90322548 225.20011792 46.8604633 215.51104062 51 205 C51.46019531 203.88753906 51.92039062 202.77507812 52.39453125 201.62890625 C62.78527573 174.97711755 63.76774557 143.77338456 58 116 C57.83902832 115.21995605 57.67805664 114.43991211 57.51220703 113.63623047 C51.10950006 83.92299573 35.77967737 57.89650043 15 36 C14.55430664 35.5270752 14.10861328 35.05415039 13.64941406 34.56689453 C-15.21096802 4.13176956 -57.09037869 -16.01849093 -99.1552887 -18.10700989 C-101.32791096 -18.16265299 -103.49858318 -18.19019992 -105.671875 -18.203125 C-106.46822861 -18.21018463 -107.26458221 -18.21724426 -108.08506775 -18.22451782 C-132.29240254 -18.39038909 -153.94080785 -16.88703242 -177 -9 Z M-245 280 C-245.38220703 281.12156494 -245.76441406 282.24312988 -246.15820312 283.39868164 C-258.90130322 320.78604779 -258.90130322 320.78604779 -263.125 332.875 C-266.27308046 341.89133851 -269.39439464 350.91673834 -272.49920654 359.94805908 C-273.03353584 361.50148368 -273.56854908 363.05467323 -274.10430908 364.60760498 C-276.89293893 372.69258414 -279.6547788 380.77227641 -282 389 C-275.6481937 388.44151762 -269.95331516 387.23340921 -265 383 C-260.56424485 376.10050555 -258.39163524 367.92306638 -255.96340942 360.13749695 C-253.88429248 353.48053822 -251.38898672 347.01885933 -248.81912231 340.53857422 C-247.55677869 337.34597974 -246.32114056 334.14307214 -245.08203125 330.94140625 C-244.57776387 329.64204049 -244.07336783 328.34272466 -243.56884766 327.04345703 C-241.06245449 320.58558056 -238.56341782 314.12485404 -236.06344604 307.66448975 C-234.77691923 304.34003302 -233.49001364 301.01572293 -232.203125 297.69140625 C-231.77676758 296.58998291 -231.35041016 295.48855957 -230.91113281 294.35375977 C-230.61045898 293.57701904 -230.30978516 292.80027832 -230 292 C-231.62339805 290.29115995 -233.29319053 288.62553283 -235 287 C-235.66 287 -236.32 287 -237 287 C-237 286.34 -237 285.68 -237 285 C-240.47998507 281.36366461 -240.47998507 281.36366461 -245 280 Z M8.4375 286.8125 C7.51420898 287.49022461 7.51420898 287.49022461 6.57226562 288.18164062 C4.99028143 289.38170615 3.48831608 290.68556229 2 292 C2 295.45263299 2.84077926 297.38225567 4.17578125 300.5625 C4.6648999 301.73119629 5.15401855 302.89989258 5.65795898 304.10400391 C6.20907648 305.40283745 6.76060336 306.70149734 7.3125 308 C7.731259 308.99226593 7.731259 308.99226593 8.15847778 310.00457764 C13.61622792 322.93691005 19.26392689 335.7861959 24.9375 348.625 C25.34328278 349.5432959 25.74906555 350.4615918 26.16714478 351.40771484 C28.43311095 356.5304998 30.7124389 361.64704679 33.00326538 366.75875854 C33.93806353 368.86073065 34.85417069 370.96978558 35.76489258 373.08227539 C36.28075928 374.2552417 36.79662598 375.42820801 37.328125 376.63671875 C37.97442871 378.13271606 37.97442871 378.13271606 38.63378906 379.65893555 C40.12203122 382.20910604 41.12526173 383.05260694 43.8125 384.1875 C45.1975457 384.50898063 46.59567786 384.77733271 48 385 C49.66708105 385.39408448 51.33375327 385.78990266 53 386.1875 C54.33266357 386.46160998 55.66589334 386.73300208 57 387 C54.86647374 380.34124083 52.43347292 373.8356585 49.859375 367.3359375 C49.45994186 366.32126907 49.06050873 365.30660065 48.64897156 364.26118469 C47.7939438 362.08946763 46.93793462 359.91813675 46.08102417 357.74716187 C43.82645592 352.03519266 41.57855606 346.32060553 39.33203125 340.60546875 C38.88090469 339.45792618 38.42977814 338.31038361 37.96498108 337.12806702 C35.09676793 329.82187125 32.25741691 322.50524758 29.44921875 315.17578125 C29.10297455 314.27218872 28.75673035 313.36859619 28.3999939 312.43762207 C26.78922168 308.22971321 25.1835604 304.01991132 23.58300781 299.80810547 C23.01240342 298.31346372 22.44176734 296.81883408 21.87109375 295.32421875 C21.62195724 294.66400223 21.37282074 294.00378571 21.11613464 293.32356262 C19.62441962 289.42408355 17.92428722 285.70449303 16 282 C13.46463829 282 10.47865946 285.26603672 8.4375 286.8125 Z M-216 301 C-220.1013124 310.65213613 -223.90891092 320.40588176 -227.6875 330.1875 C-232.41928484 342.41675812 -237.20149373 354.62095096 -242.1550293 366.76245117 C-242.5344165 367.69935791 -242.91380371 368.63626465 -243.3046875 369.6015625 C-243.63452637 370.40932129 -243.96436523 371.21708008 -244.30419922 372.04931641 C-245.11198766 373.9687811 -245.11198766 373.9687811 -245 376 C-237.900451 374.59609868 -231.26057442 372.46698948 -224.48632812 369.94726562 C-219.98810057 368.36305695 -216.69404749 367.39003002 -212 369 C-209.17850394 371.52838952 -207.13317364 374.11414659 -205.1875 377.3515625 C-204.67485596 378.19493164 -204.16221191 379.03830078 -203.6340332 379.90722656 C-203.09480225 380.8040918 -202.55557129 381.70095703 -202 382.625 C-197.55267102 389.91228165 -193.03288641 397.13603512 -188.3125 404.25 C-187.80783203 405.01779785 -187.30316406 405.7855957 -186.78320312 406.57666016 C-186.31462891 407.27839355 -185.84605469 407.98012695 -185.36328125 408.703125 C-184.95376221 409.31833008 -184.54424316 409.93353516 -184.12231445 410.56738281 C-183.04146371 412.15772664 -183.04146371 412.15772664 -181 413 C-167.23982666 382.87894305 -167.23982666 382.87894305 -154.0625 352.5 C-153.77840271 351.82784454 -153.49430542 351.15568909 -153.20159912 350.46316528 C-151.45137512 346.3154837 -149.7209409 342.15993606 -148 338 C-147.58347168 337.00613281 -147.16694336 336.01226562 -146.73779297 334.98828125 C-146.36928223 334.09496094 -146.00077148 333.20164062 -145.62109375 332.28125 C-145.30454834 331.51876953 -144.98800293 330.75628906 -144.66186523 329.97070312 C-143.84081196 327.87249753 -143.84081196 327.87249753 -144 325 C-144.58700684 324.8875293 -145.17401367 324.77505859 -145.77880859 324.65917969 C-168.46788117 320.22706099 -191.84053807 314.45841683 -211.80078125 302.29296875 C-213.86216024 300.83106021 -213.86216024 300.83106021 -216 301 Z M-14 301 C-16.39300289 302.09882786 -18.68195689 303.25884089 -21 304.5 C-41.09349461 314.82299323 -62.72468794 321.31005456 -85 325 C-83.48257735 330.02782369 -81.36649608 334.53911488 -79.00927734 339.20849609 C-78.6090889 340.00916504 -78.20890045 340.80983398 -77.79658508 341.63476562 C-76.48015513 344.26623834 -75.15808988 346.89483595 -73.8359375 349.5234375 C-72.91921644 351.35314733 -72.00284975 353.18303475 -71.08682251 355.01309204 C-68.68029325 359.81853115 -66.26896785 364.62154784 -63.85662842 369.42407227 C-61.39369957 374.32943514 -58.93532438 379.2370788 -56.4765625 384.14453125 C-51.65549021 393.76525577 -46.8293469 403.38342676 -42 413 C-38.96357505 410.11523496 -36.97374037 406.84365192 -34.875 403.25 C-34.07442359 401.89571222 -33.27363627 400.54154911 -32.47265625 399.1875 C-32.06418457 398.49398437 -31.65571289 397.80046875 -31.23486328 397.0859375 C-30.04193133 395.07083062 -28.83498262 393.06503966 -27.62109375 391.0625 C-23.61948245 384.45669214 -19.74454669 377.83989361 -16.19140625 370.9765625 C-15 369 -15 369 -13 368 C-5.91195788 367.21353208 0.2891547 369.76246707 6.9375 372 C8.09830078 372.3815625 9.25910156 372.763125 10.45507812 373.15625 C13.30655885 374.09500909 16.15455259 375.04314077 19 376 C19.33 375.34 19.66 374.68 20 374 C18.82558152 371.25247888 17.5809406 368.60887435 16.25 365.9375 C12.57749058 358.37542634 9.06275641 350.76194135 5.6875 343.0625 C5.01037964 341.52130493 5.01037964 341.52130493 4.31958008 339.94897461 C1.74085191 334.05415967 -0.79336309 328.14186332 -3.296875 322.21484375 C-3.84719379 320.9159107 -4.39756766 319.61700099 -4.94799805 318.31811523 C-6.01207684 315.80654433 -7.06678162 313.2913019 -8.11645508 310.77368164 C-8.83418091 309.07586548 -8.83418091 309.07586548 -9.56640625 307.34375 C-9.98865479 306.33505859 -10.41090332 305.32636719 -10.84594727 304.28710938 C-11.78599999 301.85822346 -11.78599999 301.85822346 -14 301 Z " fill="#E1E1E1" transform="translate(358,44)"/>
<path d="M0 0 C2.43089981 2.15584387 4.8148496 4.35019877 7.1796875 6.578125 C7.85257812 7.19816406 8.52546875 7.81820312 9.21875 8.45703125 C35.5568309 33.58838732 52.00074772 71.33854141 53.1796875 107.578125 C53.21964844 108.56167969 53.25960938 109.54523438 53.30078125 110.55859375 C54.19141649 152.73279167 36.45735955 189.81226591 8.0546875 220.203125 C-25.78802627 252.61761415 -70.25711149 264.58495332 -116.01220703 263.66699219 C-149.02565453 262.6222265 -181.85375891 251.02423019 -207.8203125 230.578125 C-208.77292969 229.85109375 -209.72554687 229.1240625 -210.70703125 228.375 C-215.93060288 224.32436426 -215.93060288 224.32436426 -217.8203125 222.578125 C-217.8203125 221.918125 -217.8203125 221.258125 -217.8203125 220.578125 C-218.3771875 220.35253906 -218.9340625 220.12695312 -219.5078125 219.89453125 C-240.77676792 207.78703467 -254.87995551 173.65470195 -261.07421875 151.22265625 C-270.98069726 112.70331693 -266.03877555 72.00948303 -245.86352539 37.61572266 C-241.092899 29.71039478 -235.96531229 22.48435457 -229.8203125 15.578125 C-229.09199219 14.72992188 -228.36367187 13.88171875 -227.61328125 13.0078125 C-170.61781979 -52.27245334 -64.32957319 -55.24146175 0 0 Z M-217.02587891 27.18066406 C-239.92333448 53.1038846 -250.17905331 86.38969297 -248.8203125 120.578125 C-246.95077521 149.54062893 -234.24918973 176.53684916 -215.8203125 198.578125 C-215.39669434 199.08682129 -214.97307617 199.59551758 -214.53662109 200.11962891 C-207.94176126 207.94466944 -200.62416558 214.33689609 -192.3984375 220.40429688 C-191.06065931 221.39935219 -189.74973873 222.43035807 -188.4453125 223.46875 C-175.62455884 233.26746887 -159.5545983 239.59668658 -143.90429688 243.10644531 C-141.96605694 243.54513786 -140.04074501 244.0399115 -138.1171875 244.5390625 C-111.05918345 250.60762719 -80.84650124 247.34435149 -54.8203125 238.578125 C-53.69109375 238.19785156 -52.561875 237.81757813 -51.3984375 237.42578125 C-18.24350858 225.41722773 8.38332305 199.85839833 24.1796875 168.578125 C39.06146427 136.63927693 39.0353146 99.38678572 27.1171875 66.515625 C18.79871418 44.73391976 3.52662601 23.98015864 -14.8203125 9.578125 C-15.32336914 9.17916016 -15.82642578 8.78019531 -16.34472656 8.36914062 C-77.72594642 -39.87656861 -165.36434725 -29.9313131 -217.02587891 27.18066406 Z " fill="#E1E1E1" transform="translate(349.8203125,76.421875)"/>
<path d="M0 0 C1.12535156 -0.04640625 1.12535156 -0.04640625 2.2734375 -0.09375 C5.84497285 0.80803301 7.24099096 2.7198689 9.625 5.5 C11.00093679 8.19553473 11.96512563 10.98674047 12.9296875 13.8515625 C13.36028976 15.07182632 13.36028976 15.07182632 13.79959106 16.31674194 C14.71328059 18.91498745 15.60715172 21.51952839 16.5 24.125 C17.09109306 25.82078536 17.68353063 27.5161027 18.27734375 29.2109375 C19.16522617 31.74594322 20.05198469 34.28127862 20.93304443 36.81866455 C24.04114715 45.75771159 27.3229309 54.63111825 30.625 63.5 C42.66514413 64.09074019 54.67568012 64.52134949 66.73046875 64.61328125 C69.99489078 64.64772374 73.2592863 64.68409727 76.52368164 64.72097778 C78.71502762 64.74031534 80.90646968 64.75080278 83.09790039 64.75241089 C86.226038 64.75551209 89.35260217 64.78903834 92.48046875 64.828125 C93.42858932 64.82102005 94.3767099 64.8139151 95.3535614 64.80659485 C99.96253723 64.89237658 101.97186253 64.98604555 105.6965332 67.91699219 C108.74802876 72.00419601 109.21581969 74.35142841 108.625 79.5 C104.97989609 85.40069935 99.3194147 89.09997054 93.625 92.8125 C91.91849642 93.95196606 90.21277218 95.09260012 88.5078125 96.234375 C87.67411133 96.78931641 86.84041016 97.34425781 85.98144531 97.91601562 C82.77611258 100.07061558 79.63167329 102.30268677 76.5 104.5625 C75.4011845 105.35306314 74.3022239 106.14342465 73.203125 106.93359375 C72.64044922 107.33819824 72.07777344 107.74280273 71.49804688 108.15966797 C67.76181604 110.83327424 64.00475072 113.47749931 60.25 116.125 C59.11473877 116.92562866 59.11473877 116.92562866 57.95654297 117.74243164 C56.17959309 118.99528229 54.40233177 120.24769118 52.625 121.5 C54.7775737 130.76387082 57.54113004 139.78162046 60.5 148.8125 C60.9261385 150.12423295 61.35192082 151.43608167 61.77734375 152.74804688 C64.35407142 160.67745539 64.35407142 160.67745539 67.02441406 168.57568359 C67.25202423 169.24125778 67.4796344 169.90683197 67.71414185 170.59257507 C68.34256927 172.42558639 68.97793399 174.25621515 69.61376953 176.08666992 C70.92184615 180.50198118 72.05701858 184.64232008 71 189.1875 C69.19572503 192.22196245 67.68548212 193.70363006 64.625 195.5 C57.28698415 196.91610832 52.49278007 193.76641551 46.46044922 189.75878906 C42.07620418 186.75198308 37.77702051 183.62673109 33.48876953 180.48510742 C28.01270765 176.47397562 22.44759069 172.64321634 16.77978516 168.90942383 C11.65925329 165.53615256 6.62353213 162.05189812 1.625 158.5 C-1.47317025 159.95983833 -4.2310547 161.68405766 -7.05078125 163.625 C-7.9538501 164.2442334 -8.85691895 164.8634668 -9.78735352 165.50146484 C-10.74440186 166.16098145 -11.7014502 166.82049805 -12.6875 167.5 C-14.68186212 168.86781401 -16.67665499 170.23500018 -18.671875 171.6015625 C-20.13463867 172.60364746 -20.13463867 172.60364746 -21.62695312 173.62597656 C-25.21187151 176.07070235 -28.81983551 178.47910555 -32.4375 180.875 C-38.2659393 184.73876989 -44.02756245 188.69083951 -49.765625 192.6875 C-54.47682674 195.95995151 -57.59413391 197.41621274 -63.375 196.5 C-68.875 193.5 -68.875 193.5 -70.375 190.5 C-71.07795706 182.91590548 -68.81551 176.54631271 -66.47265625 169.390625 C-65.86590489 167.48955843 -65.2591538 165.58849177 -64.65241909 163.68741989 C-63.80508784 161.04290541 -62.94695676 158.40194192 -62.08917236 155.76080322 C-60.79435745 151.7655164 -59.51556549 147.76507893 -58.23437405 143.76540756 C-57.23775337 140.65515686 -56.23800046 137.54598965 -55.23268127 134.4385376 C-54.87238327 133.32347839 -54.51208527 132.20841919 -54.14086914 131.05957031 C-53.82332169 130.07998352 -53.50577423 129.10039673 -53.17860413 128.09112549 C-52.50036966 125.9042395 -51.90024757 123.7276997 -51.375 121.5 C-60.1970328 115.10040425 -69.02974698 108.7174397 -77.9375 102.4375 C-78.62336182 101.95313477 -79.30922363 101.46876953 -80.01586914 100.96972656 C-83.70290321 98.36954691 -87.40147273 95.78735758 -91.11328125 93.22265625 C-91.88921631 92.68326416 -92.66515137 92.14387207 -93.46459961 91.58813477 C-94.94999134 90.55592953 -96.43891171 89.5287773 -97.93188477 88.50756836 C-105.88539631 82.9656618 -105.88539631 82.9656618 -106.80859375 78.31640625 C-106.81560963 74.26824135 -106.70376827 72.04416818 -104.5625 68.5 C-100.58201311 64.8606977 -96.24455217 65.29184703 -91.1328125 65.18359375 C-89.89027458 65.15235413 -89.89027458 65.15235413 -88.62263489 65.1204834 C-85.91518394 65.05433007 -83.20763592 64.99555116 -80.5 64.9375 C-79.58348663 64.91632111 -78.66697327 64.89514221 -77.72268677 64.87332153 C-61.60439796 64.50089598 -45.49735864 64.37280576 -29.375 64.5 C-29.17958618 63.65804077 -29.17958618 63.65804077 -28.98022461 62.79907227 C-26.44676862 52.72996108 -22.61722509 43.12852666 -18.9375 33.4375 C-18.26193475 31.64534622 -17.58680149 29.85302954 -16.91210938 28.06054688 C-15.34421395 23.9005325 -13.76318985 19.74571941 -12.17364502 15.59393311 C-11.48048597 13.77656914 -10.79765891 11.95527092 -10.11669922 10.13330078 C-9.77783691 9.24497559 -9.43897461 8.35665039 -9.08984375 7.44140625 C-8.6875354 6.37128296 -8.6875354 6.37128296 -8.27709961 5.27954102 C-6.31642288 1.41178116 -4.30280649 0.05874139 0 0 Z M-0.375 28.5 C-0.57687424 29.09246521 -0.77874847 29.68493042 -0.98674011 30.29534912 C-3.09297432 36.46638136 -5.2216735 42.62932775 -7.36352539 48.78808594 C-8.15967096 51.08687318 -8.95008679 53.38765321 -9.73461914 55.69042969 C-10.864011 59.00216951 -12.01388757 62.30617056 -13.16796875 65.609375 C-13.51401657 66.63867126 -13.86006439 67.66796753 -14.21659851 68.72845459 C-15.58201892 72.58682846 -16.89115655 75.84991044 -19.34179688 79.14257812 C-24.4273952 81.4184898 -29.60801999 81.10373425 -35.11328125 81.109375 C-36.34918503 81.12591125 -37.58508881 81.14244751 -38.85844421 81.15948486 C-42.13164951 81.1997797 -45.40439532 81.2231345 -48.67779541 81.23822021 C-52.02301053 81.25782803 -55.36785376 81.30012668 -58.71289062 81.33984375 C-65.26685689 81.41378708 -71.82071436 81.46539382 -78.375 81.5 C-75.97473076 83.93038761 -73.66944188 86.14258235 -70.86328125 88.09375 C-70.19594971 88.56095459 -69.52861816 89.02815918 -68.84106445 89.50952148 C-68.13038818 90.00137939 -67.41971191 90.4932373 -66.6875 91 C-65.16665304 92.06378259 -63.64582012 93.12758528 -62.125 94.19140625 C-60.54168884 95.29430266 -58.95835536 96.39716704 -57.375 97.5 C-54.30929756 99.64129671 -51.24764761 101.78827534 -48.1875 103.9375 C-47.49374268 104.42089844 -46.79998535 104.90429688 -46.08520508 105.40234375 C-34.83548729 113.29976903 -34.83548729 113.29976903 -33.64959717 116.39071655 C-33.33191791 118.83092963 -33.66559312 120.31103771 -34.40722656 122.65087891 C-34.65788879 123.45917145 -34.90855103 124.26746399 -35.16680908 125.10025024 C-35.44691833 125.96693329 -35.72702759 126.83361633 -36.015625 127.7265625 C-36.29847351 128.62941986 -36.58132202 129.53227722 -36.8727417 130.4624939 C-37.78060741 133.35310965 -38.70247258 136.23903393 -39.625 139.125 C-40.23141906 141.04527307 -40.8368983 142.9658432 -41.44140625 144.88671875 C-42.30009821 147.61424391 -43.16006344 150.34128287 -44.02740479 153.06607056 C-44.55208701 154.71463888 -45.07352384 156.36424423 -45.59143066 158.01495361 C-46.14192363 159.76081131 -46.70409071 161.50301009 -47.27478027 163.24237061 C-47.55889771 164.1322467 -47.84301514 165.0221228 -48.13574219 165.93896484 C-48.52786896 167.14327652 -48.52786896 167.14327652 -48.92791748 168.37191772 C-49.59796833 170.67196195 -49.59796833 170.67196195 -48.375 173.5 C-47.8500293 173.08024902 -47.32505859 172.66049805 -46.78417969 172.22802734 C-40.9048433 167.58435245 -34.83819296 163.30783352 -28.625 159.125 C-26.68189741 157.81178109 -24.73918748 156.497981 -22.796875 155.18359375 C-21.40178711 154.2397583 -21.40178711 154.2397583 -19.97851562 153.27685547 C-17.72449141 151.73852199 -15.48909784 150.17965605 -13.265625 148.59765625 C-12.68006836 148.18241699 -12.09451172 147.76717773 -11.49121094 147.33935547 C-10.00075535 146.27712444 -8.51574311 145.20726666 -7.03125 144.13671875 C-4.06827009 142.31100024 -1.80893242 141.14603022 1.625 140.5 C7.40474504 142.24596465 11.83529373 145.59603617 16.625 149.1875 C18.19385872 150.34312207 19.76425361 151.4966607 21.3359375 152.6484375 C22.17608398 153.26428711 23.01623047 153.88013672 23.88183594 154.51464844 C28.95418168 158.18573384 34.10412771 161.74558372 39.25 165.3125 C40.27609375 166.0243042 41.3021875 166.7361084 42.359375 167.46948242 C44.78030963 169.14768651 47.20212739 170.82459558 49.625 172.5 C50.76910914 169.06767259 50.47288647 168.29791078 49.36157227 164.97192383 C49.06118546 164.05699661 48.76079865 163.1420694 48.4513092 162.19941711 C48.11804123 161.21192978 47.78477325 160.22444244 47.44140625 159.20703125 C46.75444485 157.11136498 46.06759959 155.01566064 45.38085938 152.91992188 C44.28708255 149.6184861 43.18946044 146.31837522 42.08862305 143.01928711 C41.02960019 139.8350549 39.9849679 136.64635789 38.94140625 133.45703125 C38.61016251 132.47966507 38.27891876 131.50229889 37.93763733 130.49531555 C36.12715008 124.94413777 35.09105272 120.34614413 35.625 114.5 C37.35546875 112.28515625 37.35546875 112.28515625 39.8125 110.5625 C41.18728516 109.57056641 41.18728516 109.57056641 42.58984375 108.55859375 C43.59144531 107.87925781 44.59304688 107.19992188 45.625 106.5 C46.63691406 105.78972656 47.64882813 105.07945312 48.69140625 104.34765625 C50.84829624 102.84180299 53.0098277 101.34802988 55.18359375 99.8671875 C58.81138946 97.38748121 62.37375917 94.82051217 65.9375 92.25 C69.72051914 89.52371044 73.52075528 86.8727697 77.5 84.4375 C78.53125 83.798125 79.5625 83.15875 80.625 82.5 C80.625 82.17 80.625 81.84 80.625 81.5 C79.55171196 81.49786247 79.55171196 81.49786247 78.45674133 81.49568176 C71.70327909 81.47782919 64.95042935 81.43614987 58.19727802 81.36790943 C54.72558825 81.33366304 51.25433737 81.30853332 47.7824707 81.30444336 C43.78804533 81.29933406 39.79493294 81.25420534 35.80078125 81.20703125 C34.55790848 81.2109639 33.31503571 81.21489655 32.03450012 81.21894836 C23.52659845 81.07498058 23.52659845 81.07498058 19.5168457 78.51782227 C17.09311778 74.65155554 15.59625363 70.83141593 14.1796875 66.5078125 C13.88313263 65.64364716 13.58657776 64.77948181 13.28103638 63.88912964 C12.3401792 61.13890072 11.41946957 58.38244439 10.5 55.625 C9.56927556 52.87625082 8.63443183 50.12894654 7.69754028 47.3822937 C7.11758016 45.67753961 6.54187259 43.97133073 5.97116089 42.26345825 C4.39063983 37.56748877 2.64132518 33.02670677 0.625 28.5 C0.295 28.5 -0.035 28.5 -0.375 28.5 Z " fill="#E1E1E1" transform="translate(242.375,84.5)"/>
</svg>
