<?xml version="1.0" encoding="UTF-8"?>
<svg version="1.1" xmlns="http://www.w3.org/2000/svg" width="469" height="469">
<path d="M0 0 C27.17523284 25.18123133 47.6958497 58.6615434 49.73608398 96.43994141 C50.50103033 117.26452505 48.53331287 135.82385846 35.03466797 152.61767578 C18.83236025 169.53387829 -3.96151802 173.65513999 -26.34033203 174.80517578 C-50.89698703 176.13036273 -50.89698703 176.13036273 -74.40283203 182.86767578 C-75.25876953 183.21443359 -76.11470703 183.56119141 -76.99658203 183.91845703 C-88.79727884 189.21784403 -96.29807585 198.20546424 -102.27783203 209.36767578 C-105.21477131 218.12573423 -104.76889391 230.20347396 -100.80908203 238.54736328 C-98.55906473 242.25989183 -95.9335275 245.67095267 -93.30517578 249.12158203 C-86.52768823 258.90510103 -85.18481518 270.27193693 -86.40283203 281.86767578 C-91.00809004 301.45078226 -106.96957294 315.28578543 -123.30175781 325.59667969 C-129.12811573 329.12119971 -135.20219579 332.06815247 -141.40283203 334.86767578 C-142.55654297 335.40005859 -143.71025391 335.93244141 -144.89892578 336.48095703 C-152.43875249 339.73392575 -160.08609522 342.01246944 -168.02783203 344.05517578 C-168.93791016 344.29316895 -169.84798828 344.53116211 -170.78564453 344.77636719 C-187.83559244 348.95395573 -204.82943178 350.36792348 -222.34130859 350.25878906 C-225.40133195 350.24268368 -228.46003524 350.25876214 -231.52001953 350.27783203 C-271.93267365 350.32116652 -312.51910587 338.85662356 -345.40283203 314.86767578 C-346.44955078 314.11744141 -347.49626953 313.36720703 -348.57470703 312.59423828 C-385.25091157 285.51249461 -407.54486542 246.6123111 -414.40283203 201.86767578 C-421.02402533 153.71938668 -404.34025926 105.04761496 -375.63305664 66.72607422 C-370.15212781 59.56029546 -364.31371059 52.6799523 -358.40283203 45.86767578 C-357.20787109 44.48515625 -357.20787109 44.48515625 -355.98876953 43.07470703 C-352.08917982 38.64579157 -348.11821213 34.55578027 -343.60205078 30.75830078 C-340.95372458 28.48158696 -338.44155921 26.07843357 -335.90283203 23.68017578 C-307.49714649 -2.67439318 -271.00117275 -22.09870904 -234.40283203 -34.13232422 C-233.09088867 -34.56472412 -233.09088867 -34.56472412 -231.75244141 -35.00585938 C-214.59371109 -40.55312331 -197.14055929 -44.07490706 -179.40283203 -47.13232422 C-178.58331055 -47.28072754 -177.76378906 -47.42913086 -176.91943359 -47.58203125 C-117.14014901 -58.16530393 -45.60634113 -40.47203652 0 0 Z M-297.40283203 16.86767578 C-298.54755864 17.66743929 -299.69346029 18.46552272 -300.84033203 19.26220703 C-320.81908298 33.22003858 -339.35217922 49.6479397 -354.40283203 68.86767578 C-355.20462891 69.86412109 -356.00642578 70.86056641 -356.83251953 71.88720703 C-371.68325729 90.520351 -382.89829606 111.28264468 -390.40283203 133.86767578 C-390.80373047 135.04716797 -391.20462891 136.22666016 -391.61767578 137.44189453 C-402.71207485 172.81837458 -399.32071573 213.79866257 -382.60205078 246.83251953 C-362.8724085 283.97435405 -327.84309331 312.15769772 -287.91699219 324.79956055 C-278.89005302 327.46633228 -269.69615821 329.40145895 -260.40283203 330.86767578 C-259.32791504 331.04427734 -258.25299805 331.22087891 -257.14550781 331.40283203 C-246.75075014 332.96742397 -236.52371537 333.26728774 -226.02783203 333.24267578 C-225.15120911 333.24213196 -224.27458618 333.24158813 -223.37139893 333.24102783 C-208.7405016 333.19945239 -194.69726724 332.18840235 -180.40283203 328.86767578 C-179.4426416 328.64805176 -178.48245117 328.42842773 -177.49316406 328.20214844 C-153.69403182 322.59838675 -122.76239768 311.48942136 -108.64501953 290.21923828 C-104.48848545 282.85347323 -102.76920531 276.25946067 -104.40283203 267.86767578 C-106.90690998 261.3640289 -110.28167256 255.51218559 -114.09033203 249.68017578 C-121.59762214 238.18386353 -123.2795403 223.61583471 -120.71923828 210.31689453 C-115.58253854 192.51961536 -105.05861098 180.32872205 -89.40283203 170.86767578 C-71.32052259 161.05013381 -51.31665203 159.16332675 -31.15283203 157.86767578 C-11.82228541 156.60991051 8.26289124 154.89333573 22.33935547 140.02783203 C32.10369317 128.15031677 33.37076513 112.08483468 32.35498047 97.35595703 C30.61156389 79.76168158 25.4079822 63.18568 16.59716797 47.86767578 C15.73091797 46.36140625 15.73091797 46.36140625 14.84716797 44.82470703 C-8.2218929 6.96367889 -48.98196978 -15.62916561 -90.97167969 -26.23510742 C-105.60332096 -29.73463141 -120.36940994 -31.65125471 -135.40283203 -32.13232422 C-136.06283203 -32.15423828 -136.72283203 -32.17615234 -137.40283203 -32.19873047 C-192.14367908 -33.77779336 -252.95394646 -15.26937359 -297.40283203 16.86767578 Z " fill="#E0E0E0" transform="translate(417.40283203125,85.13232421875)"/>
<path d="M0 0 C10.03704975 7.66814169 16.97319302 19.14461559 18.78515625 31.7265625 C18.85605469 32.47679687 18.92695313 33.22703125 19 34 C19.08121094 34.68835938 19.16242188 35.37671875 19.24609375 36.0859375 C20.1112185 50.19009248 13.4120827 63.16301003 4.75 73.75 C-6.78546154 86.19615587 -21.33432724 92.20118417 -38.12890625 92.99609375 C-53.6432032 93.01174894 -67.39280889 88.48391455 -79 78 C-88.37736653 67.47213304 -93.51555244 54.83278335 -92.9375 40.6875 C-91.55019914 27.13341119 -85.08583686 15.10185277 -75 6 C-74.46246094 5.45859375 -73.92492187 4.9171875 -73.37109375 4.359375 C-53.33001385 -14.88675601 -22.43286024 -13.8857564 0 0 Z M-67.9375 23.3125 C-74.32746913 32.26767309 -76.32764474 41.53979573 -74.6328125 52.33984375 C-72.63433018 60.1284495 -67.01432783 66.43529056 -60.328125 70.70703125 C-50.12956017 75.94209338 -37.69573089 76.89357935 -26.5625 73.875 C-15.94751994 69.97084632 -7.0232311 63.40664917 -1.55078125 53.33203125 C1.88915435 44.96755627 2.47158033 36.3268591 -0.5625 27.75 C-4.17443726 19.85443187 -10.04604934 13.57724527 -18 10 C-36.8067661 3.5489931 -54.87546378 7.83773097 -67.9375 23.3125 Z " fill="#E0E0E0" transform="translate(409,122)"/>
<path d="M0 0 C8.83419203 6.13532122 15.02110037 14.21187154 17.74609375 24.6796875 C19.26810849 37.05379104 16.88678684 47.152671 9.62109375 57.4296875 C2.15384632 66.35474897 -7.94088111 72.18055512 -19.25390625 74.6796875 C-34.64078674 75.89531368 -46.73093783 74.24477688 -59.25390625 64.6796875 C-66.67583131 58.05493217 -70.71544412 49.24320204 -71.421875 39.3203125 C-71.52717325 26.43180657 -67.90016813 17.2623877 -58.87890625 7.8671875 C-43.42432377 -6.73880725 -18.84480204 -11.03906948 0 0 Z M-46.71484375 19.859375 C-51.55572447 25.58488367 -54.10900289 31.76728045 -53.671875 39.29296875 C-52.70155822 44.83374959 -50.40433747 48.50311012 -46.50390625 52.4921875 C-39.0714506 57.49480188 -32.20432996 58.72928616 -23.25390625 57.6796875 C-14.99114568 55.41671234 -6.8048433 51.20561874 -2.25390625 43.6796875 C0.32535887 37.74439016 1.78225305 31.96522274 -0.25390625 25.6796875 C-3.00144988 19.34736591 -7.01412727 15.57008214 -13.25390625 12.6796875 C-24.68595155 8.87713085 -37.99390307 11.63441199 -46.71484375 19.859375 Z " fill="#E0E0E0" transform="translate(273.25390625,79.3203125)"/>
<path d="M0 0 C7.95843151 7.1486262 13.16803482 16.37636091 14.203125 27.10546875 C14.45624935 38.34840885 10.36491586 47.14913162 2.84375 55.3515625 C-7.78853246 65.67316138 -19.58204863 69.42700898 -34.140625 69.2734375 C-47.6596195 68.315614 -59.14830029 63.46642616 -68.4375 53.5625 C-76.33620193 44.07758333 -77.73948295 34.99182995 -77.17919922 22.94433594 C-76.33360727 13.76954808 -70.3293074 5.93954619 -63.8125 -0.1875 C-45.22156042 -15.12519818 -18.61504571 -13.85305727 0 0 Z M-56 16 C-59.15658847 21.14824548 -60.85354218 25.918512 -60 32 C-58.28735462 38.70072505 -55.91069512 43.01913106 -50.05859375 46.8203125 C-41.99099964 51.44348787 -33.48121154 53.05195019 -24.25 51.375 C-16.40321632 49.23238818 -10.64494182 44.58542739 -6 38 C-3.67069178 33.87077179 -3.32789511 29.65303387 -4 25 C-6.00117632 18.36318739 -10.29825596 13.77884043 -16 10 C-28.99506518 3.32526197 -46.19348109 3.95503656 -56 16 Z " fill="#E0E0E0" transform="translate(151,306)"/>
<path d="M0 0 C7.45752449 5.87496842 12.81950376 12.89998196 15.0625 22.25 C16.2990526 33.83321723 14.76693906 43.54705538 7.8125 53 C-0.6032059 62.98141862 -11.60880275 70.89382095 -24.9375 72.25 C-38.6281493 73.32773869 -50.68860662 71.05308564 -61.59765625 62.38671875 C-70.19316692 54.53739599 -74.41928215 45.02326776 -75.1875 33.5 C-74.99623429 23.43942364 -70.41197311 14.10314182 -63.67578125 6.796875 C-46.57353139 -9.41938703 -20.00793124 -13.71663842 0 0 Z M-51.9375 19.25 C-55.99376941 25.0554765 -57.86022574 30.21421622 -56.9375 37.25 C-54.71884917 44.0227236 -51.32814932 49.21673633 -44.9375 52.5625 C-36.84911336 56.18573639 -28.56231249 56.4095057 -20.1875 53.5 C-11.43640153 49.93063494 -6.94613486 45.85294689 -2.9375 37.25 C-0.9313956 31.22054177 -2.22935731 25.80618942 -4.9375 20.25 C-8.30531037 14.45051639 -12.61296588 11.89985315 -18.9375 9.90625 C-31.49052619 7.16027552 -42.93261857 9.94901995 -51.9375 19.25 Z " fill="#E0E0E0" transform="translate(166.9375,126.75)"/>
<path d="M0 0 C9.78523696 5.38048642 17.99542454 13.14590344 21.37109375 23.984375 C23.55380097 34.45052392 22.46642799 43.76980192 17 53 C10.39781307 62.22189237 1.0597728 69.72833681 -10.08203125 72.5625 C-24.12086575 74.66738549 -38.20830015 73.29895402 -49.94140625 64.6875 C-58.10569173 57.99495479 -64.33197237 50.74951138 -66 40 C-66.8726587 30.01477068 -64.92392936 21.55677881 -58.53125 13.73828125 C-51.04836401 5.24367853 -43.78257463 0.3967723 -33 -3 C-22.74398943 -6.41867019 -9.6034417 -4.32795106 0 0 Z M-43.625 22.5625 C-47.94292581 28.40439962 -48.91647817 33.79578555 -48 41 C-44.99386319 47.25276457 -38.78295739 53.05249688 -32.203125 55.52734375 C-22.13836891 57.68662653 -12.90678177 56.20087809 -4.1953125 50.90234375 C0.83935848 47.20774689 3.41724231 42.40109445 4.453125 36.35546875 C4.84367999 30.00895019 3.55768529 25.92503809 -0.29296875 20.875 C-6.13821061 14.45459704 -12.88025653 12.93617985 -21.1875 12.5 C-29.96476667 12.65168088 -37.69080865 16.01046307 -43.625 22.5625 Z " fill="#E0E0E0" transform="translate(106,210)"/>
</svg>
