<svg xmlns="http://www.w3.org/2000/svg" width="2000" height="2000"><path fill="#dedede" d="M601.18 681.497q2.139-.007 4.278-.018c3.913-.016 7.825-.006 11.737.007 4.259.01 8.517-.003 12.776-.013a6779 6779 0 0 1 22.385-.004c11.097.015 22.192.008 33.289-.004 19.817-.022 39.634-.02 59.451-.008q26.013.015 52.027.008l3.484-.001 14.004-.004c43.795-.012 87.591-.001 131.387.02q58.378.029 116.755-.001a169732 169732 0 0 1 145.124-.014h3.477q25.998.006 51.997-.01 29.557-.019 59.116.013 16.548.019 33.094-.003 11.049-.013 22.097.014c4.199.01 8.397.013 12.595-.001q5.733-.019 11.464.012c2.018.006 4.036-.007 6.054-.022 9.499.079 18.088 1.573 25.104 8.47 10.324 11.693 8.691 27.17 8.626 41.798q.006 3.63.017 7.262.017 7.872 0 15.746c-.018 7.805-.013 15.61-.003 23.415.018 13.942.012 27.884-.003 41.826q-.02 18.3-.016 36.599v2.454l.003 9.864c.007 30.826-.009 61.653-.035 92.48q-.034 41.067-.018 82.136l.008 21.037v2.617a85353 85353 0 0 1-.015 80.96q-.007 18.289 0 36.578.01 20.795-.02 41.59a9000 9000 0 0 0-.005 23.27c.006 5.792-.004 11.585-.02 17.378q-.006 3.513.003 7.027c.009 3.185-.002 6.37-.017 9.556l.02 2.75c-.089 9.956-2.044 18.53-9.08 25.774-6.928 5.809-14.292 8.068-23.22 8.073l-3.61.009-3.962-.006-4.229.007q-5.837.007-11.673.003-6.34.001-12.68.008-12.588.011-25.174.01-15.071.004-30.142.015c-24.286.016-48.572.022-72.857.027q-17.227.003-34.456.01a493599 493599 0 0 1-147.623.03h-3.729c-39.91.003-79.821.02-119.732.042a228222 228222 0 0 1-140.429.04h-3.453q-27.537.005-55.072.027-27.666.022-55.332.01-16.443-.007-32.887.015-10.98.014-21.96-.001-6.258-.01-12.517.006-5.697.017-11.393-.004c-2.005-.004-4.01.007-6.016.019-13.176-.077-21.494-3.012-30.987-12.083-4.919-7.449-5.632-16.052-5.567-24.781l-.014-3.025c-.012-3.33-.003-6.659.006-9.988q-.006-3.627-.016-7.252a4700 4700 0 0 1-.007-15.744c.009-7.805 0-15.609-.01-23.413-.02-13.94-.023-27.881-.018-41.822a43129 43129 0 0 0-.007-48.919 84836 84836 0 0 1 0-92.49q.016-41.068-.02-82.135a85597 85597 0 0 1-.03-102.16v-2.448q.002-18.285-.019-36.572-.023-20.799.002-41.598.016-11.633-.009-23.267c-.012-5.796-.002-11.592.015-17.388q.005-3.512-.01-7.023c-.117-28.428-.117-28.428 8.642-38.35 8.146-8.007 18.218-8.518 29.056-8.44M706 821a110 110 0 0 0-.123 5.698l-.006 3.776.009 4.2q0 2.205-.003 4.409-.002 6.1.007 12.2.005 6.662.002 13.326 0 12.951.01 25.902.01 14.973.01 29.944c.005 26.37.019 52.738.031 79.107L706 1178h595l.062-178.438.028-56.45.005-33.246q.002-11.151.01-22.302.01-12.844.008-25.688-.002-6.577.006-13.155.007-5.936.002-11.873-.001-2.157.004-4.314.004-2.917-.002-5.836l.001-3.285c.149-2.364.149-2.364-1.124-3.413-3.134-.1-6.247-.134-9.381-.126l-3.037-.004c-3.403-.004-6.805 0-10.208.003l-7.339-.005q-8.012-.005-16.024 0-11.914.003-23.83-.002-21.274-.007-42.547-.002-18.617.004-37.234.002h-2.49l-10.008-.001q-46.983-.004-93.964.005-41.78.007-83.56 0a347288 347288 0 0 0-106.263-.004q-18.609.002-37.219-.002-21.15-.005-42.3.003-11.852.005-23.702 0-8.824-.003-17.649.004-3.588.001-7.177-.002-4.843-.004-9.687.005l-2.874-.007c-4.076-.403-4.076-.403-7.507 1.133"/></svg>