<svg xmlns="http://www.w3.org/2000/svg" width="1195" height="250"><path fill="#f8f8f8" d="m125.831 10.645 2.856 1.48 2.945 1.5C150.11 23.11 150.11 23.11 153 26c.088 2.376.115 4.722.098 7.098l-.005 2.148c-.005 2.272-.018 4.544-.03 6.817l-.014 4.61Q153.032 52.338 153 58l11-5.25 3.121-1.488 3.066-1.465 3.016-1.432c2.455-1.198 4.838-2.478 7.234-3.787 3.905-1.73 4.642-1.725 8.563-.578a98 98 0 0 1 5.484 2.688l3.082 1.617L200.75 50l3.23 1.695c7.86 4.146 7.86 4.146 9.02 5.305.163 3.13.26 6.239.316 9.371l.064 3.02c.068 3.35.126 6.698.182 10.047l.06 3.476c.125 7.624.23 15.248.325 22.872q.054 4.31.114 8.62c.116 8.324.212 16.648.266 24.974.024 3.71.055 7.42.108 11.13.058 4.175.075 8.35.088 12.525l.069 3.803-.009 3.49.025 3.042c-.842 3.64-2.529 4.642-5.608 6.63-3.313 1.25-3.313 1.25-6 2l.316 1.758c.273 2.618.265 4.669-.316 7.242-2.483 2.846-5.662 4.311-9 6l-1.739.9c-4.034 2.09-8.103 4.098-12.188 6.085q-2.901 1.422-5.784 2.882c-11.588 5.86-23.304 11.449-35.02 17.045Q137.125 224.939 135 226l.125 3.125c-.215 1.906-.215 1.906-1.125 3.875-3.714 2.879-7.812 4.896-12 7l-2.844 1.586c-6.975 3.803-6.975 3.803-12.156 2.414-2.374-1.177-2.374-1.177-4.86-2.668l-2.844-1.687-3.046-1.832a4220 4220 0 0 0-6.469-3.829l-3.375-1.994c-6.504-3.8-13.093-7.449-19.678-11.106a912 912 0 0 1-17.76-10.154c-4.754-2.77-9.548-5.469-14.343-8.167a3377 3377 0 0 1-18.999-10.774l-1.941-1.11L9 188a8767 8767 0 0 1-.414-51.373c-.042-7.951-.098-15.902-.19-23.853q-.12-10.395-.149-20.791c-.01-3.67-.035-7.339-.093-11.008-.064-4.098-.066-8.193-.062-12.29l-.087-3.686c.079-8.02.079-8.02 2.7-10.82 2.06-1.317 4.03-2.271 6.295-3.179a377 377 0 0 0 3.873-1.966 614 614 0 0 1 4.06-1.897l2.25-1.058q2.386-1.12 4.775-2.234c4.258-1.988 8.51-3.991 12.76-5.993l2.618-1.231c7.708-3.63 15.381-7.33 23.042-11.057q3.07-1.492 6.14-2.977a1291 1291 0 0 0 18.4-9.064l3.203-1.592q2.896-1.439 5.767-2.923c8.535-4.212 13.682-2.52 21.943 1.637m-19.976 8.25-1.81.918q-1.93.978-3.851 1.968c-3.402 1.749-6.816 3.472-10.23 5.2l-2.071 1.05c-5.838 2.958-11.726 5.799-17.643 8.594-11.485 5.443-22.852 11.116-34.197 16.846A574 574 0 0 1 29.6 56.65l-3.306 1.612-3.003 1.448C20.87 60.79 20.87 60.79 20 63a79 79 0 0 0-.14 4.7l-.018 3.004-.003 3.307-.015 3.474q-.021 5.71-.027 11.417l-.017 7.907q-.015 7.234-.019 14.47-.007 10.655-.05 21.31c-.025 6.15-.033 12.298-.035 18.447q-.004 3.927-.024 7.855c-.017 3.656-.015 7.312-.008 10.968l-.028 3.302c.005.994.01 1.988.017 3.012l-.005 2.62c.457 2.71 1.245 3.523 3.372 5.207a130 130 0 0 0 5.602 3.223L32 189.089l1.793.976c3.084 1.68 6.158 3.376 9.233 5.072l1.841 1.014a508 508 0 0 1 14.32 8.224 630 630 0 0 0 15.374 8.875c8.248 4.599 16.394 9.368 24.542 14.142l3.013 1.764 2.707 1.588c3.738 2.157 5.79 2.662 10.176 2.256 4.854-1.925 4.854-1.925 9-5 .156-1.34.25-2.688.316-4.035l.127-2.451.12-2.576.13-2.588q.159-3.175.307-6.35l1.692-.365C151.954 202.681 180.167 184.674 202 174V61c-13.049-8.47-13.049-8.47-21-8a77 77 0 0 0-7.215 3.418l-4.277 2.22-2.24 1.178c-3.754 1.96-7.546 3.844-11.334 5.735l-4.686 2.35-4.81 2.412-2.507 1.255c-10.793 5.406-21.601 10.765-32.54 15.87C104.417 90.715 97.822 94.327 91 98l-1 72c-12.209-6.715-24.313-13.438-36.27-20.56l-2.988-1.764-2.63-1.565c-2.01-1.266-2.01-1.266-4.112-1.111l1-71 23-11a7568 7568 0 0 0 20.187-9.812l2.631-1.284A3965 3965 0 0 0 137 29v-2c-3.41-1.847-6.829-3.675-10.25-5.5l-2.934-1.59-2.832-1.504-2.602-1.396c-4.962-2.104-8.041-.414-12.527 1.885"/><path fill="#fbfbfb" d="M278.235 36.886q2.15 0 4.3.016l2.283.005c2.415.005 4.83.018 7.245.03l4.9.014q6.019.017 12.037.049l.004 1.703q.056 20.572.18 41.145c.04 6.633.072 13.265.087 19.898.015 6.406.05 12.812.097 19.218q.023 3.659.024 7.316c.002 3.428.03 6.854.062 10.282l-.015 3.025c.142 9.715 2.685 18.54 9.499 25.69C328.087 172.92 338.49 173.86 350 173c8.585-1.76 15.558-4.832 20.496-12.246 3.018-5.207 4.618-9.43 4.655-15.48l.026-2.868.012-3.125.026-3.308q.026-3.553.045-7.107.033-5.616.077-11.23c.065-8.618.12-17.235.176-25.853q.081-12.8.179-25.6.038-5.547.068-11.096l.05-6.756.013-3.143.026-2.843.015-2.484C376 38 376 38 377 37c2.51-.1 4.99-.14 7.5-.133l2.275-.003q2.385 0 4.772.006 3.664.006 7.328-.007 2.313 0 4.625.004l2.229-.006c5.156.024 5.156.024 6.271 1.139.102 1.436.135 2.877.14 4.316l.018 2.824.003 3.124.015 3.273q.021 5.393.027 10.787l.017 7.496q.015 6.873.019 13.747a4957 4957 0 0 0 .042 18.153q.04 9.747.043 19.494.004 3.705.024 7.41c.108 21.884-.843 41.552-16.97 58.196-17.64 16.164-38.505 18.89-61.486 18.312-15.84-.722-30.198-6.45-41.892-17.132l-1.887-1.574c-10.361-9.244-15.445-22.538-16.28-36.158-.269-7.916-.203-15.836-.161-23.756l.006-7.668q.007-7.989.04-15.979c.03-6.842.04-13.684.044-20.526q.007-7.894.026-15.788l.015-7.576q.01-5.264.036-10.527l.003-3.181.018-2.875.009-2.512c.23-3.293.982-2.875 4.366-2.994"/><path fill="#fdfdfd" d="m741.377 36.839 2.021-.015q3.335-.021 6.668-.027l4.657-.017q4.905-.015 9.808-.02c4.145-.006 8.29-.03 12.435-.058 3.217-.02 6.433-.024 9.65-.026q2.288-.004 4.574-.024c20.088-.162 38.489 2.948 53.673 17.082 10.67 11.073 14.54 25.166 14.45 40.141l-.018 2.949c-.115 6.79-.61 12.866-3.295 19.176-.425 1.002-.85 2.003-1.29 3.035-6.137 13.245-15.736 22.01-29.296 27.387-8.282 2.615-16.106 3.723-24.75 3.894-.78.02-1.56.038-2.364.057-2.892.068-5.783.128-8.675.19L770 151l-1 53-16.938.062-5.35.028-4.177.008-2.209.015c-1.776 0-3.551-.05-5.326-.113-1.852-1.852-1.126-4.902-1.127-7.378l-.005-2.042c-.004-2.275 0-4.55.003-6.824l-.006-4.873q-.005-6.634 0-13.27c.003-4.618 0-9.237 0-13.856q-.004-11.637.005-23.273.007-13.474-.002-26.947-.007-11.547-.003-23.093.003-6.906-.001-13.812-.004-6.49.005-12.98l-.002-4.78q-.002-3.247.006-6.494l.001-3.68c.236-5.064 3.046-3.834 7.503-3.86M769 68a84 84 0 0 0-.13 4.963l-.009 3.205.006 3.488-.003 3.554q0 3.727.006 7.455.005 5.727-.007 11.456 0 3.612.004 7.223l-.006 3.488.01 3.205.002 2.837c-.11 2.11-.11 2.11 1.127 3.126 4.111.245 8.226.229 12.344.24 2.054.01 4.108.04 6.162.072 10.904.043 19.7-.667 27.803-8.41 6.337-7.127 7.05-14.093 6.972-23.347-.5-6.312-2.614-10.581-6.656-15.368-7.3-6.083-13.504-8.449-23.055-8.417h-2.048q-2.12.006-4.24.024c-2.172.019-4.344.02-6.516.02-6.37-.623-6.37-.623-11.766 1.186"/><path fill="#fbfbfb" d="M537.313 83.75C548.06 92.692 553.353 103.175 555 117c.362 6.608.258 13.236.23 19.852v5.73q-.003 5.967-.024 11.936c-.017 5.11-.021 10.22-.02 15.33q-.001 5.899-.013 11.798l-.006 5.658q-.004 3.93-.022 7.863l.002 2.373c-.033 5.346-.033 5.346-1.147 6.46-2.52.088-5.014.115-7.535.098l-2.283-.005c-2.415-.005-4.83-.018-7.245-.03l-4.9-.014q-6.018-.017-12.037-.049l-.018-3.021q-.086-14.124-.218-28.248c-.044-4.84-.084-9.68-.11-14.52q-.041-7.013-.117-14.025a916 916 0 0 1-.035-5.34 833 833 0 0 0-.07-7.502l.005-2.208c-.12-6.65-1.966-11.909-5.625-17.448-4.688-4.481-9.328-5.816-15.75-6.126-6.118.226-11.303 1.944-15.886 6.086-6.682 7.41-7.266 15.292-7.381 25.031l-.03 2.22q-.047 3.596-.081 7.19l-.063 5.015q-.082 6.572-.153 13.144-.092 7.9-.19 15.8c-.098 7.983-.187 15.968-.278 23.952h-34V78h34v21h2l.563-2.5c3.507-8.54 10.367-13.697 18.535-17.469 13.353-4.947 30.542-3.418 42.214 4.719M977.652 89c6.187 5.21 10.484 10.922 14.348 18 .6 1.092.6 1.092 1.21 2.207 8.22 16.655 8.282 38.64 3.11 56.215C990.864 180.21 982.124 191.706 968 199c-15.21 6.77-33.993 9.122-50.21 4.098-15.569-6.127-28.569-15.007-35.481-30.832-8.172-19.94-8.641-41.621-.621-61.703 6.013-12.949 16.807-24.447 30.273-29.723 21.794-7.507 46.924-5.992 65.691 8.16M920 111c-8.96 11.595-9.009 25.957-8 40 1.143 8.243 3.841 16.192 10 22 6.552 4.846 13.06 5.664 21 5 6.613-2.017 11.953-5.516 15.48-11.52 6.448-13.518 7.872-29.218 3.625-43.69-2.502-6.313-5.765-12.794-11.73-16.415-10.522-4.287-21.961-3.555-30.375 4.625"/><path fill="#fafafa" d="m1129.119 47.861 2.162.006 2.208-.003q2.316 0 4.63.006c2.371.005 4.741 0 7.111-.007q2.245 0 4.489.004l2.162-.006c5.004.024 5.004.024 6.119 1.139.088 2.146.107 4.294.098 6.441l-.01 3.955-.025 4.166-.014 4.178q-.018 5.13-.049 10.26l2.095-.016q4.67-.029 9.343-.047l3.298-.025 3.135-.01 2.904-.016C1181 78 1181 78 1182 79c.1 1.842.13 3.687.133 5.531l.004 3.395-.012 3.574.012 3.574-.004 3.395-.004 3.138C1182 104 1182 104 1181 105a91 91 0 0 1-5.129.098l-3.135-.01-3.298-.026-3.311-.013q-4.064-.018-8.127-.049.055 12.583.184 25.166c.04 3.895.072 7.79.087 11.686q.025 5.64.097 11.282.023 2.15.024 4.3c.002 2.01.032 4.021.062 6.032l.027 3.465c.632 3.739 1.86 5.408 4.519 8.069 3.285 1.095 5.737 1.1 9.188 1.062l3.292-.027L1178 176c1.797 4.071 2.756 8.078 3.625 12.437.26 1.278.52 2.555.79 3.872.525 3.315.699 6.344.585 9.691-8.832 5.3-23.96 4.027-33.812 2.352-10.489-2.895-17.332-8.106-22.997-17.336-3.787-9.586-3.461-19.825-3.386-29.965l.008-4.527q.014-5.901.05-11.802c.02-4.029.03-8.058.04-12.087.02-7.879.055-15.757.097-23.635l-3.465.035q-2.236.015-4.472.027l-2.288.026A183 183 0 0 1 1107 105c-1.745-1.745-1.13-4.161-1.133-6.531l-.004-3.395.012-3.574-.012-3.574.004-3.395.004-3.138C1106 79 1106 79 1107 78c2.697-.073 5.367-.092 8.063-.063l2.298.014q2.82.02 5.639.049l-.016-2.646q-.026-4.845-.039-9.69-.008-2.099-.02-4.198-.018-3.013-.023-6.025l-.016-3.665c.194-4.723 1.984-3.895 6.233-3.915"/><path fill="#fdfdfd" d="M653 48h34v30c7.524-.04 7.524-.04 15.049-.09l2.822-.008 2.904-.016C710 78 710 78 711 79c.087 1.927.107 3.857.098 5.785l-.01 3.545-.025 3.733-.014 3.744q-.02 4.596-.049 9.193l-23 1c-.068 7.833-.123 15.665-.155 23.498q-.022 5.455-.071 10.912-.048 5.27-.059 10.543a739 739 0 0 1-.055 5.954c-.001 6.434.043 11.475 3.34 17.093 3.237 2.621 6.715 2.206 10.75 2.125l3.547-.055L708 176q1.258 5.374 2.5 10.75l.723 3.078.683 2.969.635 2.73C713 198 713 198 713 202c-10.857 4.79-27.84 5.195-38.973.969-8.659-4.138-15.525-9.544-19.192-18.69-2.623-7.578-2.44-15.192-2.444-23.103q-.023-2.398-.05-4.796c-.044-4.17-.064-8.34-.08-12.512-.019-4.27-.06-8.54-.1-12.811-.076-8.353-.124-16.705-.161-25.057l-16-1V78h17z"/><path fill="#fcfcfc" d="m1087.25 76.813 2.18.001c5.288.045 5.288.045 7.57 1.186v30l-7.875-.687c-9.51-.658-17.552.347-25.125 6.687-8.509 9.078-7.33 21.447-7.414 33.066q-.028 2.47-.059 4.94-.073 6.457-.128 12.916c-.047 5.18-.109 10.36-.168 15.541-.088 7.846-.158 15.691-.231 23.537h-34V78h33v21h2l.625-2.437c3.105-8.045 7.433-13.928 15.375-17.563 4.891-1.998 9.059-2.278 14.25-2.187"/><path fill="#fafafa" d="m588.119 77.861 2.162.006 2.208-.003q2.316 0 4.63.006 3.556.005 7.111-.007 2.245 0 4.489.004l2.162-.006c5.004.024 5.004.024 6.119 1.139.096 1.62.122 3.243.12 4.866l.004 3.191-.01 3.531v3.695q-.001 5.03-.013 10.06-.007 5.25-.008 10.502-.005 9.95-.021 19.9-.015 11.325-.022 22.65-.016 23.303-.05 46.605-7.236.037-14.471.055-2.464.008-4.927.02c-2.356.013-4.711.018-7.067.023l-2.238.015c-1.766 0-3.532-.051-5.297-.113-1.647-1.647-1.126-3.552-1.127-5.821l-.009-3.162.007-3.497-.006-3.661q-.004-4.983 0-9.967c.003-3.47 0-6.939 0-10.408q-.004-8.742.005-17.483.006-10.12-.002-20.24-.007-8.673-.003-17.347.003-5.188-.001-10.375c-.004-3.853.001-7.706.007-11.559l-.007-3.497.009-3.162.001-2.764c.25-4.094 2.728-3.18 6.245-3.196"/><path fill="#fbfbfb" d="M190 92v53c-18.056 9.028-18.056 9.028-24.5 12a585 585 0 0 0-16.625 8.063 681 681 0 0 1-16.25 7.937l-1.93.918C126.238 176 126.238 176 124 176v-53c17.597-8.888 35.255-17.463 53.174-25.677a233 233 0 0 0 7.498-3.69C188 92 188 92 190 92"/><path fill="#f8f8f8" d="M609.813 29.75c3.693 2.607 6.165 5.207 8.187 9.25.5 5.478.737 10.379-1.562 15.438-4.73 4.972-9.135 8.282-16.125 8.874-6.169-.09-10.582-2.844-15.188-6.75-3.612-4.355-4.56-7.87-4.367-13.582.707-5.78 4.068-9.252 8.426-12.718 6.388-4.438 13.887-4.07 20.629-.512"/></svg>